<svg xmlns="http://www.w3.org/2000/svg" width="512" height="512" viewBox="0 0 512 512">
  <defs>
    <linearGradient id="grad" x1="0%" y1="0%" x2="100%" y2="100%">
      <stop offset="0%" style="stop-color:#6366f1;stop-opacity:1" />
      <stop offset="100%" style="stop-color:#8b5cf6;stop-opacity:1" />
    </linearGradient>
  </defs>
  <rect width="512" height="512" rx="96" fill="url(#grad)"/>
  <path d="M256 128c-70.7 0-128 57.3-128 128s57.3 128 128 128 128-57.3 128-128-57.3-128-128-128zm0 213c-47 0-85-38-85-85s38-85 85-85 85 38 85 85-38 85-85 85z" fill="white" opacity="0.3"/>
  <path d="M256 149v107l75 43" stroke="white" stroke-width="20" stroke-linecap="round" stroke-linejoin="round" fill="none"/>
  <path d="M160 363l21-21M352 363l-21-21M256 384v-21" stroke="white" stroke-width="16" stroke-linecap="round" fill="none"/>
</svg>
